<svg version="1.1" xmlns="http://www.w3.org/2000/svg" style="display: block;" viewBox="0 0 3440 396" width="3440" height="396" preserveAspectRatio="none">
<path transform="translate(0,0)" fill="rgb(140,120,95)" d="M 2152.74 73.4033 C 2153.04 73.2781 2153.16 73.234 2153.49 73.2045 C 2174.6 71.0644 2195.09 76.6176 2211.51 90.1088 C 2239.44 113.054 2241.74 162.613 2217.01 188.759 C 2214.07 191.872 2205.6 198.561 2201.6 198.874 C 2201.97 197.191 2203.1 197.374 2204.57 196.341 C 2234.63 175.117 2235.5 126.337 2211.09 101.451 C 2184.11 73.9408 2133.66 81.3168 2108.88 106.765 C 2069.98 146.71 2080.58 213.236 2117.84 250.415 C 2184.72 318.858 2290.38 311.795 2378.19 306.888 C 2486.56 299.574 2595.92 280.324 2702.44 258.296 C 2796.93 239.189 2890.64 216.438 2983.37 190.094 L 3127.78 148.431 C 3208.46 125.182 3326.91 81.6007 3398.44 153.479 C 3433.96 189.176 3439.87 243.63 3401.63 280.874 C 3386.79 291.787 3378.11 296.426 3358.96 298.161 C 3310.37 302.564 3281.67 241.2 3315.42 206.741 C 3317.66 204.455 3317.74 203.379 3320.99 203.237 C 3320.69 205.256 3318.18 208.017 3316.75 209.572 C 3308.03 219.178 3304.24 230.744 3305.82 243.635 C 3312.29 296.725 3369.94 302.538 3400.86 265.245 C 3412.93 250.677 3415.41 233.826 3414.55 215.429 C 3414.43 212.885 3411.77 208.481 3411.39 205.736 C 3407.23 185.989 3395.83 169.296 3379.84 156.942 C 3317.51 108.777 3232.54 134.79 3164.46 151.581 L 3054.38 178.708 C 2942.51 206.46 2831.33 236.559 2719.4 263.774 C 2630.16 285.474 2533.91 306.699 2442.71 317.526 C 2406.37 322.097 2369.85 325.181 2333.26 326.77 C 2260.7 329.965 2185.24 328.123 2124.91 281.222 C 2095.22 257.963 2074.22 227.097 2069.71 189.014 C 2062.94 131.952 2092.97 80.3808 2152.74 73.4033 z"/>
<path transform="translate(0,0)" fill="rgb(140,120,95)" d="M 1268.52 73.3935 C 1277.03 70.5443 1298.1 75.0501 1306.71 77.6241 C 1363.29 94.5234 1382.74 164.503 1363.51 215.201 C 1324.23 318.76 1198.95 334.333 1102.94 326.622 C 946.371 318.774 797.484 283.88 646.2 245.444 L 379.762 177.458 L 274.089 151.355 C 227.676 139.968 177.997 125.612 129.959 130.188 C 80.7133 134.879 30.3316 164.252 25.1973 217.841 C 16.9194 304.228 148.946 318.923 131.134 221.97 C 129.963 215.599 119.004 206.455 117.436 203.419 L 119.303 203.158 C 141.023 216.106 142.176 250.207 131.215 270.755 C 124.886 282.893 113.886 291.93 100.75 295.783 C 82.7256 301.203 66.0456 297.494 49.8983 288.843 C 45.0342 286.354 40.4896 283.284 36.3641 279.701 C 14.8745 261.385 6.85546 229.781 14.2176 202.891 C 17.9085 189.41 21.3393 177.238 30.2583 165.959 C 97.6677 80.7117 212.66 119.866 298.14 144.648 L 432.882 183.531 C 593.246 230.395 756.604 266.325 921.831 291.074 C 1006.19 303.201 1095.33 313.956 1180.61 308.062 C 1235 303.86 1290.31 286.869 1326.87 244.32 C 1367.54 196.981 1367.68 116.718 1303.66 89.8923 C 1230.13 59.0801 1175.23 146.635 1237.36 198.212 L 1236.27 198.548 C 1200.33 182.803 1196.57 126.158 1219.7 98.4354 C 1232.81 82.7203 1248.62 75.7397 1268.52 73.3935 z"/>
<path transform="translate(0,0)" fill="rgb(140,120,95)" d="M 1733.12 159.759 C 1739.67 160.178 1951.94 257.074 1955.39 260.802 C 1953.09 262.464 1941.68 267.737 1938.18 269.639 L 1877.71 301.755 L 1774.25 356.349 C 1758.15 364.785 1735.86 377.318 1719.6 384.429 C 1713.02 381.966 1693.19 371.003 1685.8 367.157 L 1612.37 328.685 C 1578.83 311.099 1544.77 293.605 1511.59 275.381 C 1506.77 272.733 1487.28 262.801 1484.24 260.67 C 1484.99 259.507 1633.21 189.245 1645.34 186.565 C 1660.35 177.325 1680.78 172.168 1696.11 163.172 C 1698.87 161.55 1697.69 161.339 1701.14 161.177 L 1701.22 162.468 C 1700.94 162.811 1700.64 163.124 1700.32 163.44 C 1699.53 164.247 1527.73 254.736 1514.92 259.987 L 1514.74 260.869 C 1524.98 266.643 1538.66 272.769 1549.41 278.218 C 1574.39 291.169 1599.49 303.88 1624.71 316.35 C 1654.29 331.212 1689.95 351.082 1719.37 364.445 C 1729.17 360.554 1744.07 352.382 1753.86 347.361 L 1812.39 317.4 C 1848.25 299.026 1889.25 280.283 1924.1 261.172 C 1922.96 257.235 1889.76 242.636 1883.83 239.579 L 1792.81 191.743 C 1773.57 181.588 1751.77 170.668 1733.12 159.759 z"/>
<path transform="translate(0,0)" fill="rgb(140,120,95)" d="M 1718.23 13.3098 C 1718.47 13.2473 1718.7 13.1938 1718.94 13.1592 C 1724.16 12.4032 1857.19 84.6918 1866.03 91.1675 L 1866.06 92.2152 C 1851.21 98.1127 1732.82 151.842 1728.58 150.584 C 1733.83 145.295 1805.2 108.443 1815.61 102.262 C 1818.8 100.369 1833.73 93.0306 1835.83 90.8482 C 1836.05 91.2919 1730.4 37.4393 1721.26 33.4709 L 1719.03 32.9189 C 1713.33 34.7447 1602.46 92.0733 1603.38 90.891 C 1604.97 93.6231 1698.55 140.918 1710.28 150.234 C 1704.77 150.915 1586.92 98.3456 1571.79 90.8989 C 1581.67 86.8557 1609.44 70.7793 1620.5 64.8016 C 1652.88 47.262 1685.46 30.0969 1718.23 13.3098 z"/>
</svg>